<svg width="182" height="163" viewBox="0 0 182 163" fill="none" xmlns="http://www.w3.org/2000/svg">
<g clip-path="url(#clip0)">
<path opacity="0.1" d="M106.737 33.503C95.2206 33.1017 84.2509 29.3767 73.7776 25.3004C63.3043 21.2241 52.9306 16.7073 41.6904 14.5479C34.4609 13.1588 26.1922 12.9627 20.3683 16.8464C14.7616 20.591 12.9502 27.0372 11.9769 33.0251C11.2438 37.5293 10.8132 42.269 12.8221 46.4862C14.2153 49.4142 16.6904 51.8749 18.4004 54.6888C24.3559 64.4463 20.1477 76.4791 13.694 86.0065C10.6691 90.4769 7.15482 94.744 4.8203 99.498C2.48578 104.252 1.40393 109.707 3.44663 114.56C5.47332 119.375 10.3007 122.984 15.5285 125.525C26.1495 130.687 38.6601 132.164 50.8683 133C77.8843 134.853 105.043 134.05 132.13 133.248C142.155 132.95 152.222 132.649 162.084 131.096C167.561 130.233 173.214 128.865 177.19 125.559C182.237 121.363 183.488 114.257 180.107 108.997C174.432 100.172 158.754 97.9805 154.783 88.5083C152.601 83.2961 154.843 77.4901 158.014 72.6542C164.818 62.2833 176.222 53.1838 176.824 41.3293C177.237 33.1856 171.753 25.0329 163.276 21.1795C154.391 17.1263 142.068 17.6399 135.516 24.325C128.765 31.2134 116.904 33.856 106.737 33.503Z" fill="#4DAD52"/>
<path d="M77.4822 132.126L16.5783 131.829L10.5267 117.604L31.9252 116.048L28.1957 100.452L70.5195 94.9544L29.9911 80.8353L33.5712 79.983L98.7402 90.6374L95.1512 114.976L90.0213 128.351L77.4822 132.126Z" fill="#4DAD52"/>
<path d="M17.5125 125.871C17.5125 125.871 21.2491 125.272 23.4911 127.918C23.4911 127.918 21.847 129.216 18.3096 127.419L17.5125 125.871Z" fill="#4DAD52"/>
<path d="M17.121 125.812C17.121 125.812 14.7366 128.753 15.911 132.026C15.911 132.026 17.8541 131.247 18.0658 127.278L17.121 125.812Z" fill="#4DAD52"/>
<path d="M14.9787 120.978C14.9787 120.978 16.4733 118.23 22.452 122.076C22.452 122.076 21.6548 123.924 19.0143 123.774C16.3737 123.624 15.6762 122.426 14.9787 120.978Z" fill="#4DAD52"/>
<path d="M14.5925 120.78C14.5925 120.78 11.4911 120.423 11.1904 127.538C11.1904 127.538 13.1566 127.947 14.5534 125.696C15.9502 123.446 15.3772 122.183 14.5925 120.78Z" fill="#4DAD52"/>
<path d="M12.7864 115.104C12.7864 115.104 14.5302 110.261 20.8576 113.706C20.8576 113.706 19.4128 118.15 13.4341 116.752L12.7864 115.104Z" fill="#4DAD52"/>
<path d="M10.8434 107.865C10.8434 107.865 14.1317 102.972 19.9609 107.508C19.9609 107.508 17.9181 112.101 11.3416 109.605L10.8434 107.865Z" fill="#4DAD52"/>
<path d="M10.1459 100.974C10.1459 100.974 13.9822 96.479 19.7544 100.974C19.7544 100.974 16.1174 104.919 10.1459 102.123V100.974Z" fill="#4DAD52"/>
<path d="M9.54807 94.2822C9.54807 94.2822 13.4342 89.5889 18.9644 94.0325C18.9644 94.0325 14.5801 98.1766 9.54807 95.3806V94.2822Z" fill="#4DAD52"/>
<path d="M9.89682 88.3407C9.89682 88.3407 13.9893 82.2993 19.1637 86.3934C19.1637 86.3934 14.7794 91.586 9.89682 89.489V88.3407Z" fill="#4DAD52"/>
<path d="M10.8434 81.4006C10.8434 81.4006 15.1779 75.4091 20.21 80.0026C20.21 80.0026 15.0783 85.1952 10.8434 82.499V81.4006Z" fill="#4DAD52"/>
<path d="M12.2883 75.1969C12.2883 75.1969 17.42 69.5657 21.8968 71.8089C21.8968 71.8089 16.5499 77.7896 12.0641 76.6912L12.2883 75.1969Z" fill="#4DAD52"/>
<path d="M14.0819 69.3161C14.0819 69.3161 20.0036 62.4188 23.4484 64.7226C23.4484 64.7226 19.0854 70.0721 13.6619 70.6071L14.0819 69.3161Z" fill="#4DAD52"/>
<path d="M16.6708 62.4954C16.6708 62.4954 21.8541 56.8642 25.6405 58.2622C25.6405 58.2622 21.2064 64.1039 15.9751 64.2536L16.6708 62.4954Z" fill="#4DAD52"/>
<path d="M19.0142 56.1153C19.0142 56.1153 24.7438 50.723 27.2349 51.6716C27.2349 51.6716 23.0997 57.6631 18.7651 57.3136L19.0142 56.1153Z" fill="#4DAD52"/>
<path d="M21.3061 50.2237C21.3061 50.2237 26.2384 43.7811 28.9306 44.2804C28.9306 44.2804 25.9395 50.024 21.3061 50.8781V50.2237Z" fill="#4DAD52"/>
<path d="M23.7936 42.2797C23.7936 42.2797 28.153 37.3421 30.5089 37.3528C30.5089 37.3528 27.0676 43.9505 23.6139 43.8899L23.7936 42.2797Z" fill="#4DAD52"/>
<path d="M25.2669 36.9908L29.4787 26.7055C29.4787 26.7055 29.6886 36.0029 24.7313 38.8988L25.2669 36.9908Z" fill="#4DAD52"/>
<path d="M26.9768 25.6481C26.9768 25.6481 27.6743 17.0586 27.2259 16.3596C27.2259 16.3596 30.2366 23.5011 26.9484 29.4427L26.9768 25.6481Z" fill="#4DAD52"/>
<path d="M12.6228 114.99C12.6228 114.99 8.25623 112.278 5.42883 118.913C5.42883 118.913 9.31495 121.499 13.137 116.682L12.6228 114.99Z" fill="#4DAD52"/>
<path d="M10.7029 107.588C10.7029 107.588 5.34698 105.14 2.74911 112.068C2.74911 112.068 6.88613 114.921 11.1904 109.339L10.7029 107.588Z" fill="#4DAD52"/>
<path d="M9.89678 101.386C9.89678 101.386 6.06048 96.8909 0.288239 101.386C0.288239 101.386 3.92525 105.331 9.89678 102.535V101.386Z" fill="#4DAD52"/>
<path d="M9.41637 94.2822C9.41637 94.2822 5.53025 89.5889 0 94.0325C0 94.0325 4.38434 98.1766 9.41637 95.3806V94.2822Z" fill="#4DAD52"/>
<path d="M9.89679 88.5119C9.89679 88.5119 7.17081 81.7448 1.24554 84.6549C1.24554 84.6549 4.44839 90.6552 9.6548 89.6352L9.89679 88.5119Z" fill="#4DAD52"/>
<path d="M11.1868 81.3667C11.1868 81.3667 8.47685 74.4819 2.46796 77.6738C2.46796 77.6738 6.14767 83.9844 10.9199 82.4295L11.1868 81.3667Z" fill="#4DAD52"/>
<path d="M12.8665 75.2308C12.8665 75.2308 11.7989 67.6827 6.81671 67.0068C6.81671 67.0068 7.87365 74.9669 12.1957 76.5913L12.8665 75.2308Z" fill="#4DAD52"/>
<path d="M14.2082 69.3303C14.2082 69.3303 13.7918 60.2362 9.67261 59.9188C9.67261 59.9188 9.8114 66.8214 13.7438 70.6178L14.2082 69.3303Z" fill="#4DAD52"/>
<path d="M17.0979 62.2405C17.0979 62.2405 15.8701 54.6781 11.9377 53.7544C11.9377 53.7544 12.4253 61.0779 16.7082 64.0968L17.0979 62.2405Z" fill="#4DAD52"/>
<path d="M19.4804 56.1777C19.4804 56.1777 19.4395 48.2997 17.0374 47.1424C17.0374 47.1424 15.548 54.2751 18.7847 57.1834L19.4804 56.1777Z" fill="#4DAD52"/>
<path d="M21.4893 50.1345C21.4893 50.1345 21.153 42.0229 18.6655 40.8799C18.6655 40.8799 17.8149 47.2993 21.1174 50.6659L21.4893 50.1345Z" fill="#4DAD52"/>
<path d="M24.1406 42.927C24.1406 42.927 24.1263 36.3293 22.3505 34.7815C22.3505 34.7815 20.5854 42.0086 23.2135 44.2537L24.1406 42.927Z" fill="#4DAD52"/>
<path d="M25.0587 36.6663L23.3309 25.6855C23.3309 25.6855 20.984 34.6834 25.1405 38.6491L25.0587 36.6663Z" fill="#4DAD52"/>
<path d="M25.395 25.7515C25.395 25.7515 20.9609 18.3692 21.0516 17.549C21.0516 17.549 21.5231 25.2861 27.1014 29.1395L25.395 25.7515Z" fill="#4DAD52"/>
<path d="M25.9146 23.5707C25.9146 23.5707 21.7296 13.0857 19.8363 12.2369C19.8363 12.2369 25.815 15.2825 26.2634 23.2711L25.9146 23.5707Z" fill="#4DAD52"/>
<path d="M23.5925 43.9523L23.3061 43.8649C26.8381 32.3225 27.7189 24.9634 25.7883 23.1178L25.9929 22.9002C28.0409 24.8475 27.21 32.1263 23.5925 43.9523Z" fill="#444053"/>
<path d="M13.8665 70.978L13.4431 70.8264C13.8185 69.769 14.2224 68.6955 14.6459 67.6381C18.3327 58.4298 21.4715 49.8635 23.484 43.2872L23.8523 43.1089C21.8363 49.6977 18.7527 58.5921 15.0623 67.8129C14.6406 68.8507 14.2384 69.9188 13.8665 70.978Z" fill="#444053"/>
<path d="M22.7776 134.509C22.7206 134.446 16.9964 127.986 13.0053 116.957C10.6668 110.5 9.36532 103.712 9.14946 96.8464C8.87544 88.264 10.6726 78.6813 13.7509 69.9759L14.0854 70.3682C7.17438 89.9063 9.91993 106.648 13.5623 116.731C17.5107 127.66 23.1708 134.049 23.226 134.113L22.7776 134.509Z" fill="#444053"/>
<path d="M112.229 120.793C112.229 120.793 108.196 125.727 111.399 133.186L79.1922 147.183L76.1014 147.832L74.6779 141.591L75.6299 133.715V129.411L112.229 120.793Z" fill="#D5D6DB"/>
<path d="M10.5267 117.604L55.1032 109.461L114.169 118.89L77.4822 132.126L10.5267 117.604Z" fill="#4DAD52"/>
<path d="M10.5267 117.604L55.1032 109.461L114.169 118.89L77.4822 132.126L10.5267 117.604Z" fill="#4DAD52"/>
<path d="M10.5267 117.602C10.5267 117.602 6.35765 125.518 11.1619 132.829L77.2651 147.183C77.2651 147.183 73.1619 140.878 77.4769 132.126L10.5267 117.602Z" fill="#4DAD52"/>
<path opacity="0.1" d="M10.5267 117.602C10.5267 117.602 6.35765 125.518 11.1619 132.829L77.2651 147.183C77.2651 147.183 73.1619 140.878 77.4769 132.126L10.5267 117.602Z" fill="black"/>
<path opacity="0.1" d="M12.4964 120.347C12.4964 120.347 10.1139 126.138 12.4964 129.887V120.347Z" fill="black"/>
<path d="M77.2651 147.183L114.169 131.402C114.169 131.402 116.233 131.848 114.899 133.364C113.564 134.88 77.9769 148.699 77.9769 148.699L11.1619 132.829L77.2651 147.183Z" fill="#4DAD52"/>
<path opacity="0.1" d="M77.2651 147.183L114.169 131.402C114.169 131.402 116.233 131.848 114.899 133.364C113.564 134.88 77.9769 148.699 77.9769 148.699L11.1619 132.829L77.2651 147.183Z" fill="black"/>
<path opacity="0.1" d="M74.2402 133.721C74.2402 133.721 70.6815 138 74.2402 144.42V133.721Z" fill="black"/>
<path opacity="0.1" d="M91.4692 133.648L75.5068 138.985L75.5631 139.154L91.5256 133.817L91.4692 133.648Z" fill="black"/>
<path opacity="0.1" d="M94.6664 133.117L75.5017 140.42L75.565 140.587L94.7297 133.284L94.6664 133.117Z" fill="black"/>
<path opacity="0.1" d="M97.6027 133.091L75.6087 142.113L75.6761 142.278L97.6701 133.256L97.6027 133.091Z" fill="black"/>
<path opacity="0.1" d="M100.796 132.319L75.8654 143.605L75.9386 143.767L100.869 132.481L100.796 132.319Z" fill="black"/>
<path opacity="0.1" d="M103.478 132.323L76.0627 144.331L76.134 144.495L103.549 132.486L103.478 132.323Z" fill="black"/>
<path opacity="0.1" d="M109.346 131.324L76.4762 145.551L76.5467 145.715L109.416 131.488L109.346 131.324Z" fill="black"/>
<path opacity="0.3" d="M27.0872 118.474L58.4039 111.877L77.4822 115.532L51.8203 123.824L27.0872 118.474Z" fill="white"/>
<path d="M114.169 118.89C114.169 118.89 115.788 119.544 114.838 120.555C113.888 121.566 77.4768 132.126 77.4768 132.126L114.169 118.89Z" fill="#4DAD52"/>
<path d="M129.897 103.642C129.897 103.642 125.865 108.574 129.068 116.035L96.8612 130.033L93.7705 130.686L92.347 124.444L93.3132 116.57V112.26L129.897 103.642Z" fill="#D5D6DB"/>
<path d="M28.1957 100.452L72.7705 92.31L131.838 101.739L95.1512 114.976L28.1957 100.452Z" fill="#3A3768"/>
<path d="M28.1886 100.452C28.1886 100.452 24.0178 108.367 28.8221 115.678L94.9253 130.033C94.9253 130.033 90.8238 123.722 95.1441 114.974L28.1886 100.452Z" fill="#3A3768"/>
<path opacity="0.1" d="M28.1886 100.452C28.1886 100.452 24.0178 108.367 28.8221 115.678L94.9253 130.033C94.9253 130.033 90.8238 123.722 95.1441 114.974L74.2402 110.439L28.1886 100.452Z" fill="black"/>
<path opacity="0.1" d="M30.1637 103.196C30.1637 103.196 27.7829 108.986 30.1637 112.736V103.196Z" fill="black"/>
<path d="M94.9324 130.033L131.838 114.252C131.838 114.252 133.9 114.698 132.566 116.213C131.231 117.729 95.6441 131.549 95.6441 131.549L28.8292 115.678L94.9324 130.033Z" fill="#3A3768"/>
<path opacity="0.1" d="M94.9324 130.033L131.838 114.252C131.838 114.252 133.9 114.698 132.566 116.213C131.231 117.729 95.6441 131.549 95.6441 131.549L28.8292 115.678L94.9324 130.033Z" fill="black"/>
<path opacity="0.1" d="M91.9074 116.57C91.9074 116.57 88.3488 120.85 91.9074 127.269V116.57Z" fill="black"/>
<path opacity="0.1" d="M109.138 116.499L93.1754 121.836L93.2318 122.006L109.194 116.669L109.138 116.499Z" fill="black"/>
<path opacity="0.1" d="M112.337 115.968L93.1726 123.271L93.2359 123.437L112.401 116.134L112.337 115.968Z" fill="black"/>
<path opacity="0.1" d="M115.271 115.94L93.2769 124.961L93.3444 125.126L115.338 116.105L115.271 115.94Z" fill="black"/>
<path opacity="0.1" d="M118.466 115.167L93.5357 126.453L93.609 126.616L118.539 115.33L118.466 115.167Z" fill="black"/>
<path opacity="0.1" d="M121.146 115.169L93.7305 127.178L93.8018 127.341L121.217 115.332L121.146 115.169Z" fill="black"/>
<path opacity="0.1" d="M127.015 114.17L94.1453 128.397L94.2159 128.561L127.085 114.334L127.015 114.17Z" fill="black"/>
<path opacity="0.45" d="M44.7562 101.324L76.073 94.7262L95.1513 98.3817L69.4893 106.673L44.7562 101.324Z" fill="white"/>
<path d="M131.838 101.739C131.838 101.739 133.456 102.394 132.507 103.403C131.559 104.412 95.1513 114.974 95.1513 114.974L131.838 101.739Z" fill="#3A3768"/>
<path d="M131.569 84.0218C131.569 84.0218 127.536 92.8788 130.738 100.338L98.5321 110.413L95.4484 111.067L94.0249 104.826L94.9769 96.9498V92.6399L131.569 84.0218Z" fill="#D5D6DB"/>
<path d="M29.8737 80.8335L74.4502 72.6898L133.518 82.1192L96.8292 95.3556L29.8737 80.8335Z" fill="#4DAD52"/>
<path d="M29.8737 80.8318C29.8737 80.8318 25.6975 88.7472 30.5018 96.0582L96.605 110.413C96.605 110.413 92.5018 104.102 96.8221 95.3557L29.8737 80.8318Z" fill="#4DAD52"/>
<path opacity="0.1" d="M29.8737 80.8318C29.8737 80.8318 25.6975 88.7472 30.5018 96.0582L96.605 110.413C96.605 110.413 92.5018 104.102 96.8221 95.3557L29.8737 80.8318Z" fill="black"/>
<path opacity="0.1" d="M31.8434 83.576C31.8434 83.576 29.4608 89.3678 31.8434 93.116V83.576Z" fill="black"/>
<path d="M96.6121 110.413L133.516 98.5547C133.516 98.5547 135.58 99.0005 134.246 100.516C132.911 102.032 97.3238 111.928 97.3238 111.928L30.5089 96.0582L96.6121 110.413Z" fill="#4DAD52"/>
<path opacity="0.1" d="M96.6121 110.413L133.516 98.5547C133.516 98.5547 135.58 99.0005 134.246 100.516C132.911 102.032 97.3238 111.928 97.3238 111.928L30.5089 96.0582L96.6121 110.413Z" fill="black"/>
<path opacity="0.1" d="M93.5872 96.9498C93.5872 96.9498 90.0285 101.229 93.5872 107.649V96.9498Z" fill="black"/>
<path opacity="0.1" d="M110.818 96.879L94.8557 102.216L94.912 102.385L110.874 97.0481L110.818 96.879Z" fill="black"/>
<path opacity="0.1" d="M114.016 96.348L94.8516 103.651L94.9149 103.818L114.08 96.5146L114.016 96.348Z" fill="black"/>
<path opacity="0.1" d="M116.948 96.3207L94.9543 105.342L95.0217 105.507L117.016 96.4858L116.948 96.3207Z" fill="black"/>
<path opacity="0.1" d="M120.146 95.547L95.2155 106.833L95.2888 106.995L120.219 95.7095L120.146 95.547Z" fill="black"/>
<path opacity="0.1" d="M122.827 95.5501L95.4113 107.559L95.4826 107.722L122.898 95.7135L122.827 95.5501Z" fill="black"/>
<path opacity="0.1" d="M128.695 94.5526L95.8254 108.78L95.896 108.943L128.765 94.7163L128.695 94.5526Z" fill="black"/>
<path opacity="0.3" d="M46.4342 81.7037L77.7509 75.106L96.8292 78.7615L71.1673 87.0533L46.4342 81.7037Z" fill="white"/>
<path d="M133.516 82.1192C133.516 82.1192 135.135 82.7736 134.185 83.7847C133.235 84.7957 96.8292 95.3556 96.8292 95.3556L133.516 82.1192Z" fill="#4DAD52"/>
<path d="M55.2349 27.9894C55.2349 27.9894 48.4733 27.581 49.2633 32.3349C49.2633 32.3349 49.105 33.1748 49.8648 33.5564C49.8648 33.5564 49.8772 33.1998 50.5587 33.3228C50.8019 33.3647 51.0493 33.3767 51.2954 33.3585C51.6271 33.3357 51.9424 33.2056 52.1939 32.9876C52.1939 32.9876 54.0961 32.1994 54.8363 29.0825C54.8363 29.0825 55.3843 28.4031 55.3701 28.2283L54.2242 28.7169C54.2242 28.7169 54.6139 29.5425 54.3078 30.229C54.3078 30.229 54.2705 28.7472 54.0498 28.7811C54.0053 28.7811 53.4573 29.0682 53.4573 29.0682C53.4573 29.0682 54.1281 30.5072 53.621 31.5521C53.621 31.5521 53.8132 29.7797 53.2473 29.1716L52.443 29.6424C52.443 29.6424 53.2277 31.1277 52.6957 32.3403C52.6957 32.3403 52.8327 30.4805 52.274 29.7565L51.5445 30.3271C51.5445 30.3271 52.2829 31.7911 51.8327 32.7968C51.8327 32.7968 51.774 30.632 51.3879 30.468C51.3879 30.468 50.7491 31.0315 50.653 31.2633C50.653 31.2633 51.1584 32.3332 50.8434 32.8877C50.8434 32.8877 50.653 31.4451 50.4875 31.438C50.4875 31.438 49.8523 32.3938 49.7865 33.0429C49.8172 32.4377 50.0056 31.8513 50.3327 31.3417C49.9666 31.4111 49.6288 31.5866 49.3612 31.8464C49.3612 31.8464 49.4591 31.1705 50.4911 31.1117C50.4911 31.1117 51.016 30.3859 51.1566 30.3431C51.1566 30.3431 50.1299 30.2558 49.5089 30.5322C49.5089 30.5322 50.0569 29.8956 51.3434 30.1755L52.0551 29.5871C52.0551 29.5871 50.7064 29.4088 50.1334 29.6067C50.1334 29.6067 50.7936 29.0432 52.2491 29.4533L53.0338 28.9844C53.0338 28.9844 51.8826 28.7365 51.1975 28.8257C51.1975 28.8257 51.9199 28.4352 53.2633 28.8578L53.8221 28.6063C53.8221 28.6063 52.9804 28.4405 52.7331 28.4138C52.4858 28.387 52.4733 28.3193 52.4733 28.3193C53.0075 28.2313 53.5555 28.293 54.0569 28.4976C54.0569 28.4976 55.258 28.0643 55.2349 27.9894Z" fill="#4DAD52"/>
<path opacity="0.1" d="M150.359 47.5293C150.359 47.5293 143.598 47.121 144.388 51.8749C144.388 51.8749 144.23 52.7148 144.989 53.0964C144.989 53.0964 145.002 52.7397 145.683 52.8628C145.927 52.9037 146.174 52.9156 146.42 52.8984C146.749 52.8742 147.061 52.7441 147.31 52.5275C147.31 52.5275 149.213 51.7394 149.952 48.6224C149.952 48.6224 150.5 47.943 150.486 47.7683L149.343 48.2568C149.343 48.2568 149.733 49.0825 149.427 49.769C149.427 49.769 149.39 48.2872 149.171 48.321C149.126 48.321 148.576 48.6081 148.576 48.6081C148.576 48.6081 149.247 50.0471 148.742 51.0921C148.742 51.0921 148.934 49.3196 148.367 48.7116L147.562 49.1823C147.562 49.1823 148.347 50.6677 147.815 51.8802C147.815 51.8802 147.952 50.0204 147.393 49.2964L146.665 49.867C146.665 49.867 147.402 51.331 146.952 52.3367C146.952 52.3367 146.893 50.172 146.507 50.0079C146.507 50.0079 145.87 50.5714 145.772 50.8032C145.772 50.8032 146.278 51.8731 145.964 52.4277C145.964 52.4277 145.772 50.9851 145.609 50.978C145.609 50.978 144.973 51.9337 144.907 52.5828C144.938 51.9774 145.127 51.3908 145.455 50.8817C145.089 50.9512 144.751 51.1266 144.482 51.3863C144.482 51.3863 144.582 50.7105 145.612 50.6516C145.612 50.6516 146.137 49.9259 146.278 49.8813C146.278 49.8813 145.253 49.7957 144.63 50.0721C144.63 50.0721 145.178 49.4355 146.464 49.7155L147.176 49.127C147.176 49.127 145.826 48.9487 145.254 49.1466C145.254 49.1466 145.913 48.5832 147.37 48.9933L148.153 48.5243C148.153 48.5243 147.002 48.2765 146.317 48.3656C146.317 48.3656 147.039 47.9751 148.383 48.3977L148.943 48.1463C148.943 48.1463 148.1 47.9805 147.852 47.9537C147.605 47.927 147.592 47.8592 147.592 47.8592C148.127 47.7702 148.675 47.8319 149.176 48.0375C149.176 48.0375 150.381 47.6042 150.359 47.5293Z" fill="#4DAD52"/>
<path opacity="0.1" d="M66.6228 57.3582C66.6228 57.3582 63.6761 51.2365 59.9252 54.2537C59.9252 54.2537 59.1156 54.5247 59.1548 55.3753C59.1548 55.3753 59.4662 55.213 59.6886 55.8692C59.7717 56.1012 59.8816 56.3226 60.016 56.529C60.1981 56.8087 60.466 57.0215 60.7793 57.1353C60.7793 57.1353 62.3932 58.4156 65.4697 57.5418C65.4697 57.5418 66.3292 57.6898 66.4697 57.5864L65.4875 56.825C65.4875 56.825 64.9537 57.5686 64.2099 57.6345C64.2099 57.6345 65.484 56.8803 65.347 56.7055C65.3185 56.6698 64.8131 56.3257 64.8131 56.3257C64.8131 56.3257 63.8861 57.6149 62.7295 57.6809C62.7295 57.6809 64.3665 56.9855 64.6192 56.192L63.8185 55.7176C63.8185 55.7176 62.9057 57.1299 61.5907 57.2547C61.5907 57.2547 63.2776 56.4684 63.6352 55.6267L62.7847 55.2701C62.7847 55.2701 61.8683 56.6288 60.7722 56.7269C60.7722 56.7269 62.6299 55.6196 62.5836 55.2005C62.5836 55.2005 61.7811 54.9188 61.532 54.9455C61.532 54.9455 60.8523 55.9067 60.2117 55.9067C60.2117 55.9067 61.3736 55.0347 61.3025 54.8938C61.3025 54.8938 60.1601 54.8047 59.5587 55.0721C60.1006 54.8022 60.7037 54.6792 61.3078 54.7155C61.0681 54.4291 60.7503 54.219 60.3932 54.111C60.3932 54.111 61.0302 53.8685 61.5836 54.7405C61.5836 54.7405 62.4733 54.8457 62.5783 54.9473C62.5783 54.9473 62.153 54.0094 61.6103 53.601C61.6103 53.601 62.4324 53.7668 62.8078 55.0275L63.6708 55.3699C63.6708 55.3699 63.1744 54.1003 62.7171 53.6991C62.7171 53.6991 63.5285 54.0004 63.8825 55.4823L64.6726 55.9388C64.6726 55.9388 64.3292 54.81 63.9164 54.2554C63.9164 54.2554 64.6085 54.6977 64.895 56.0778L65.3879 56.4452C65.3879 56.4452 65.121 55.6267 65.032 55.3984C64.943 55.1702 64.9875 55.1238 64.9875 55.1238C65.326 55.5472 65.5404 56.0565 65.6067 56.595C65.6067 56.595 66.5587 57.4116 66.6228 57.3582Z" fill="#4DAD52"/>
<path opacity="0.1" d="M134.911 38.881C134.911 38.881 131.966 32.7594 128.214 35.7765C128.214 35.7765 127.406 36.0475 127.443 36.8981C127.443 36.8981 127.756 36.7376 127.977 37.392C128.06 37.6249 128.17 37.8471 128.306 38.0536C128.487 38.3328 128.755 38.5451 129.068 38.6581C129.068 38.6581 130.683 39.9384 133.758 39.0664C133.758 39.0664 134.617 39.2126 134.76 39.1092L133.783 38.346C133.783 38.346 133.249 39.0914 132.507 39.1574C132.507 39.1574 133.779 38.4013 133.642 38.2266C133.614 38.1909 133.109 37.8467 133.109 37.8467C133.109 37.8467 132.183 39.136 131.025 39.2019C131.025 39.2019 132.664 38.5065 132.916 37.7148L132.103 37.244C132.103 37.244 131.192 38.6545 129.875 38.7811C129.875 38.7811 131.562 37.993 131.922 37.1513L131.069 36.7947C131.069 36.7947 130.153 38.1552 129.059 38.2515C129.059 38.2515 130.915 37.1442 130.868 36.7269C130.868 36.7269 130.068 36.4434 129.819 36.4719C129.819 36.4719 129.139 37.4313 128.496 37.4313C128.496 37.4313 129.66 36.5593 129.589 36.4184C129.589 36.4184 128.447 36.3293 127.843 36.5967C128.385 36.3267 128.988 36.2038 129.593 36.2401C129.354 35.9535 129.036 35.7434 128.68 35.6356C128.68 35.6356 129.317 35.3931 129.87 36.2651C129.87 36.2651 130.76 36.3721 130.865 36.4737C130.865 36.4737 130.44 35.534 129.895 35.1256C129.895 35.1256 130.717 35.2932 131.093 36.5611L131.957 36.9034C131.957 36.9034 131.461 35.632 131.004 35.2308C131.004 35.2308 131.815 35.5322 132.167 37.014L132.959 37.4705C132.959 37.4705 132.614 36.3435 132.201 35.7872C132.201 35.7872 132.895 36.2294 133.18 37.6096L133.673 37.9769C133.673 37.9769 133.407 37.1584 133.317 36.9302C133.226 36.7019 133.272 36.6574 133.272 36.6574C133.61 37.0811 133.824 37.5903 133.89 38.1285C133.89 38.1285 134.856 38.938 134.911 38.881Z" fill="#4DAD52"/>
<path opacity="0.1" d="M144.322 69.1609C144.322 69.1609 141.377 63.0376 137.619 66.0547C137.619 66.0547 136.811 66.3257 136.849 67.1763C136.849 67.1763 137.162 67.0158 137.383 67.6702C137.465 67.9031 137.575 68.1252 137.71 68.3318C137.891 68.611 138.159 68.8232 138.472 68.9363C138.472 68.9363 140.087 70.2184 143.164 69.3446C143.164 69.3446 144.021 69.4926 144.164 69.3874L143.182 68.626C143.182 68.626 142.648 69.3714 141.904 69.4373C141.904 69.4373 143.176 68.6813 143.039 68.5065C143.011 68.4709 142.505 68.1267 142.505 68.1267C142.505 68.1267 141.58 69.4159 140.422 69.4837C140.422 69.4837 142.061 68.7865 142.313 67.9948L141.511 67.5204C141.511 67.5204 140.6 68.9327 139.283 69.0575C139.283 69.0575 140.97 68.2694 141.329 67.4277L140.477 67.0711C140.477 67.0711 139.561 68.4298 138.466 68.5279C138.466 68.5279 140.324 67.4206 140.278 67.0015C140.278 67.0015 139.475 66.718 139.226 66.7465C139.226 66.7465 138.546 67.7059 137.904 67.7059C137.904 67.7059 139.068 66.8339 138.996 66.693C138.996 66.693 137.854 66.6039 137.251 66.8714C137.794 66.6015 138.397 66.4786 139.002 66.5147C138.763 66.2277 138.445 66.0175 138.087 65.9102C138.087 65.9102 138.724 65.6659 139.278 66.5397C139.278 66.5397 140.167 66.6449 140.272 66.7465C140.272 66.7465 139.847 65.8086 139.304 65.3985C139.304 65.3985 140.126 65.5661 140.502 66.8339L141.365 67.1763C141.365 67.1763 140.868 65.9049 140.411 65.5055C140.411 65.5055 141.222 65.805 141.575 67.2886L142.367 67.7433C142.367 67.7433 142.021 66.6164 141.609 66.06C141.609 66.06 142.303 66.5022 142.589 67.8842L143.082 68.2408C143.082 68.2408 142.815 67.4224 142.726 67.1941C142.637 66.9659 142.682 66.9213 142.682 66.9213C143.02 67.3446 143.234 67.854 143.299 68.3924C143.299 68.3924 144.267 69.2144 144.322 69.1609Z" fill="#4DAD52"/>
<path opacity="0.1" d="M35.9342 148.827C38.1934 148.827 40.0249 148.622 40.0249 148.369C40.0249 148.116 38.1934 147.911 35.9342 147.911C33.6749 147.911 31.8434 148.116 31.8434 148.369C31.8434 148.622 33.6749 148.827 35.9342 148.827Z" fill="#4DAD52"/>
<path opacity="0.1" d="M9.11742 141.039C11.3767 141.039 13.2082 140.833 13.2082 140.58C13.2082 140.327 11.3767 140.122 9.11742 140.122C6.85816 140.122 5.02667 140.327 5.02667 140.58C5.02667 140.833 6.85816 141.039 9.11742 141.039Z" fill="#4DAD52"/>
<path opacity="0.1" d="M56.3754 154C58.6347 154 60.4662 153.795 60.4662 153.542C60.4662 153.289 58.6347 153.084 56.3754 153.084C54.1162 153.084 52.2847 153.289 52.2847 153.542C52.2847 153.795 54.1162 154 56.3754 154Z" fill="#4DAD52"/>
<path opacity="0.1" d="M161.126 142.733C163.386 142.733 165.217 142.527 165.217 142.274C165.217 142.021 163.386 141.816 161.126 141.816C158.867 141.816 157.036 142.021 157.036 142.274C157.036 142.527 158.867 142.733 161.126 142.733Z" fill="#4DAD52"/>
<path opacity="0.1" d="M127.085 140.509C129.345 140.509 131.176 140.304 131.176 140.051C131.176 139.798 129.345 139.592 127.085 139.592C124.826 139.592 122.995 139.798 122.995 140.051C122.995 140.304 124.826 140.509 127.085 140.509Z" fill="#4DAD52"/>
<path opacity="0.1" d="M105.064 151.354C107.736 151.354 109.902 150.981 109.902 150.521C109.902 150.062 107.736 149.689 105.064 149.689C102.392 149.689 100.226 150.062 100.226 150.521C100.226 150.981 102.392 151.354 105.064 151.354Z" fill="#4DAD52"/>
<path d="M107.222 142.151C107.222 142.151 100.486 145.639 103.966 149.748C103.966 149.748 104.294 150.639 105.24 150.577C105.24 150.577 105.052 150.231 105.774 149.954C106.031 149.855 106.275 149.725 106.502 149.567C106.808 149.356 107.036 149.049 107.153 148.696C107.153 148.696 108.53 146.848 107.463 143.43C107.463 143.43 107.601 142.463 107.48 142.306L106.662 143.432C106.662 143.432 107.507 144 107.605 144.837C107.605 144.837 106.715 143.433 106.537 143.589C106.498 143.621 106.132 144.204 106.132 144.204C106.132 144.204 107.598 145.201 107.706 146.495C107.706 146.495 106.881 144.682 105.989 144.423L105.479 145.336C105.479 145.336 107.08 146.313 107.258 147.783C107.258 147.783 106.327 145.919 105.377 145.543L105.002 146.508C105.002 146.508 106.546 147.492 106.689 148.715C106.689 148.715 105.397 146.67 104.932 146.734C104.932 146.734 104.641 147.64 104.68 147.92C104.68 147.92 105.77 148.651 105.79 149.37C105.79 149.37 104.783 148.095 104.628 148.178C104.628 148.178 104.564 149.46 104.874 150.127C104.874 150.127 104.34 149.175 104.427 148.178C104.115 148.455 103.89 148.817 103.781 149.22C103.781 149.22 103.491 148.515 104.447 147.866C104.447 147.866 104.537 146.87 104.648 146.747C104.648 146.747 103.614 147.253 103.174 147.873C103.174 147.873 103.336 146.948 104.738 146.488L105.094 145.511C105.094 145.511 103.692 146.106 103.26 146.631C103.26 146.631 103.571 145.712 105.205 145.272L105.689 144.38C105.689 144.38 104.443 144.801 103.835 145.272C103.835 145.272 104.306 144.482 105.838 144.118L106.231 143.556C106.231 143.556 105.327 143.879 105.075 143.995C104.822 144.111 104.772 144.054 104.772 144.054C105.234 143.662 105.795 143.407 106.393 143.316C106.393 143.316 107.285 142.212 107.222 142.151Z" fill="#4DAD52"/>
<path d="M127.217 76.2757C126.053 73.1071 119.648 72.8093 116.868 73.617C114.893 74.193 110.73 74.8421 108.505 75.1684L108.361 75.0311C108.649 74.9455 108.657 74.7351 108.621 74.423C108.6 74.0118 108.606 73.5996 108.639 73.1891C110.002 73.6135 111.215 72.6096 111.215 72.6096C112.817 71.8963 112.386 68.8435 112.692 68.009C112.922 67.3849 113.169 63.708 113.279 61.8749H113.302L113.315 61.2597C113.331 60.994 113.338 60.8389 113.338 60.8389C113.338 60.8389 113.495 56.356 113.801 55.4484C114.085 54.6138 114.317 50.4091 114.352 49.7422C114.352 49.6852 114.352 49.6549 114.352 49.6549L114.329 49.2661C114.345 48.9826 114.352 48.667 114.351 48.3353C114.351 46.8107 114.192 44.8902 114.173 44.58C114.173 44.5354 114.173 44.4819 114.173 44.4177C114.185 43.7668 114.103 40.5072 111.336 39.275C110.317 38.8186 109.091 38.2747 107.904 37.7451C107.598 35.0971 106.899 32.4633 106.959 29.7957C106.959 29.3945 106.995 28.9933 107.034 28.5939C107.034 28.7098 107.021 28.8275 107.02 28.9505C107.02 29.2091 107.02 29.4694 107.02 29.728C107.125 26.3917 108.383 23.0375 108.265 19.7725C108.254 20.0917 108.231 20.4127 108.201 20.7337C108.262 19.6293 108.147 18.5222 107.859 17.4544C107.753 17.0782 107.609 16.6895 107.301 16.438C107.01 16.2355 106.676 16.1031 106.326 16.0511C105.484 15.8351 104.628 15.6754 103.765 15.5732C103.634 15.1709 103.439 14.7922 103.189 14.4516C101.384 11.9694 98.7117 9.63703 95.5516 9.10208C93.9662 8.8346 92.1423 9.0575 91.0641 10.1934C90.9514 10.2932 90.8456 10.4004 90.7473 10.5143C90.1673 11.208 89.9182 12.1192 89.3238 12.8111C89.2847 12.8574 89.2402 12.9002 89.1975 12.9448C88.0338 13.988 86.2206 14.2055 84.927 15.1417C84.6991 15.3097 84.4855 15.4964 84.2883 15.6998C83.767 16.2174 83.2996 16.7868 82.8932 17.3992C82.3114 18.2194 81.7135 19.0735 81.5285 20.0525C81.1566 22.014 82.4893 23.8738 82.7367 25.8478C83.2883 30.2647 78.411 34.1841 79.3345 38.5422C79.5809 39.6128 80.1251 40.5915 80.9039 41.3649C79.0018 43.091 77.3826 44.7654 77.3826 44.7654V44.8653H77.0819L77.1121 45.2219H77.0819L77.2473 47.1566L77.0819 49.974C77.0819 49.974 77.0819 50.0044 77.0819 50.0614V50.0757V50.1524C77.0819 50.1524 77.0819 50.1827 77.0819 50.2397H77.0925C77.1477 51.2722 77.3666 54.9847 77.6263 55.7675C77.9324 56.6752 78.0872 61.1581 78.0872 61.1581C78.0872 61.1581 78.4253 67.4936 78.7349 68.3317C79.0445 69.1698 78.605 72.2137 80.2117 72.9323C80.6818 73.2936 81.2383 73.5248 81.8256 73.6028C81.7438 74.2697 81.7954 74.7529 82.0605 74.9045C82.174 74.9713 82.3026 75.0082 82.4342 75.0115C82.3251 75.1735 82.2282 75.3434 82.1441 75.5197C81.5064 75.453 80.8797 75.3049 80.2794 75.0792C78.5534 74.366 72.8256 72.7611 71.1619 73.8899C69.4982 75.0186 65.4947 76.0422 67.3434 80.5857C69.1922 85.1292 70.0534 85.2433 70.0534 85.2433C70.6225 85.6573 71.1217 86.16 71.532 86.7322C72.0872 87.5685 77.2598 89.4819 78.5534 89.4819C79.1032 89.4734 79.653 89.5008 80.1993 89.5639C80.1993 89.5639 78.7954 90.7979 78.9822 91.5147C79.169 92.2315 78.5552 97.9697 78.5552 97.9697C78.5552 97.9697 79.9786 99.407 80.5872 97.5222L80.6085 97.5507C80.7224 97.7058 81.3381 98.4066 82.4964 97.5222C82.9705 97.1617 83.4741 96.842 84.0018 96.5664L89.6103 95.7711C90.1951 95.7345 90.7814 95.7303 91.3665 95.7586C92.2562 95.8317 93.1299 95.3039 93.6797 94.8956C94.8416 95.3378 96.1477 95.821 96.7687 95.9976C98.0285 96.3542 103.819 97.9109 105.173 97.4241C105.454 97.3119 105.704 97.1333 105.902 96.9034L107.194 96.9444L106.589 97.0657C106.589 97.0657 107.767 97.0853 109.368 97.1067L109.301 97.1459L111.31 97.1281C114.249 97.1548 117.552 97.1638 117.986 97.0657C118.665 96.9141 122.197 97.0211 123.238 97.0657H123.528C123.528 97.0657 127.409 96.29 125.808 92.3439C124.576 89.3125 120.792 88.4316 119.112 88.1891C119.585 88.0946 119.993 88.0215 120.263 87.9787C121.436 87.8003 123.714 86.7305 123.899 86.3649C124.084 85.9994 125.993 84.9384 126.486 84.3339C126.979 83.7294 128.386 79.4444 127.217 76.2757ZM95.073 85.1434L94.8826 85.2058L94.7544 85.2486L94.5089 85.4911C94.3132 85.3592 94.1032 85.2201 93.8843 85.0775C94.2705 85.1006 94.6673 85.1238 95.073 85.1434Z" fill="url(#paint0_linear)"/>
<path d="M106.418 66.3417C106.418 66.3417 109.141 73.4744 110.689 72.7611C112.237 72.0479 111.817 69.0165 112.112 68.1855C112.407 67.3546 112.735 61.0529 112.735 61.0529C112.735 61.0529 112.884 56.595 113.18 55.6927C113.454 54.8635 113.676 50.682 113.714 50.024C113.714 49.9669 113.714 49.9366 113.714 49.9366L113.42 44.7654L111.758 44.3499L107.904 45.7765L107.37 48.831L107.162 50.024L107.073 50.5322L106.418 66.3417Z" fill="#BE6F72"/>
<path opacity="0.1" d="M107.315 65.147C107.315 65.147 109.913 67.2779 110.696 67.4651C111.479 67.6524 111.959 69.3143 111.959 69.3143" fill="black"/>
<path d="M85.1281 66.6538C85.1281 66.6538 82.4057 73.7865 80.8576 73.0732C79.3096 72.3599 79.7295 69.3285 79.4342 68.4976C79.1388 67.6666 78.8114 61.3649 78.8114 61.3649C78.8114 61.3649 78.6619 56.907 78.3665 56.0047C78.0925 55.1755 77.8701 50.994 77.8327 50.336C77.8327 50.279 77.8327 50.2486 77.8327 50.2486L78.1281 45.0775L79.79 44.662L83.6441 46.0885L84.1779 49.1431L84.3861 50.336L84.4751 50.8442L85.1281 66.6538Z" fill="#BE6F72"/>
<path d="M102.856 28.4833H96.7794V37.9751H102.856V28.4833Z" fill="#3E373A"/>
<path opacity="0.1" d="M102.856 28.4833H96.7794V37.9751H102.856V28.4833Z" fill="black"/>
<path d="M84.0605 73.7579C84.0605 73.7579 81.984 76.0457 82.7545 76.4612C83.5249 76.8767 88.5089 84.6638 88.5089 84.6638C88.5089 84.6638 104.879 86.6841 107.966 83.6527C111.053 80.6213 110.991 75.2059 110.991 75.2059C110.991 75.2059 108.511 75.7408 108.24 75.4502C107.97 75.1595 106.484 73.7579 106.484 73.7579C106.484 73.7579 85.484 72.4812 84.0605 73.7579Z" fill="#4B4B5B"/>
<path opacity="0.02" d="M84.0605 73.7579C84.0605 73.7579 81.984 76.0457 82.7545 76.4612C83.5249 76.8767 88.5089 84.6638 88.5089 84.6638C88.5089 84.6638 104.879 86.6841 107.966 83.6527C111.053 80.6213 110.991 75.2059 110.991 75.2059C110.991 75.2059 108.511 75.7408 108.24 75.4502C107.97 75.1595 106.484 73.7579 106.484 73.7579C106.484 73.7579 85.484 72.4812 84.0605 73.7579Z" fill="black"/>
<path d="M113.53 44.8403L108.192 49.1199L106.578 49.2376L105.986 49.2804L96.0338 50.0115L85.7135 49.2554L84.1779 49.1431L82.2206 49.0004L78.1281 45.0775C78.1281 45.0775 81.0249 41.9676 83.5623 39.8688C84.5623 39.0397 85.5071 38.3692 86.1957 38.1053L86.3132 38.0643C86.7463 37.895 87.133 37.6248 87.4413 37.2761C89.4448 35.2059 91.2972 30.0971 91.2972 30.0971C91.2972 30.0971 100.135 25.5215 99.0676 31.5236C98 37.5258 103.041 36.0422 103.041 36.0422L104.703 36.8018L105.359 37.1031L107.034 37.8717L110.811 39.6085C113.776 40.9762 113.53 44.8403 113.53 44.8403Z" fill="#BE6F72"/>
<path opacity="0.1" d="M95.6192 34.9847C100.009 34.9847 103.568 31.4185 103.568 27.0193C103.568 22.6202 100.009 19.0539 95.6192 19.0539C91.2295 19.0539 87.6708 22.6202 87.6708 27.0193C87.6708 31.4185 91.2295 34.9847 95.6192 34.9847Z" fill="black"/>
<path opacity="0.1" d="M113.543 50.5144H77.8327C77.8327 50.4573 77.8327 50.427 77.8327 50.427L78.1281 45.2558C78.1281 45.2558 81.0249 42.146 83.5623 40.0472L105.982 39.1556L107.025 38.0536L110.802 39.7904C113.769 41.1563 113.53 45.0204 113.53 45.0204C113.53 45.0204 113.936 49.498 113.543 50.5144Z" fill="black"/>
<path d="M113.543 50.336H77.8327C77.8327 50.279 77.8327 50.2487 77.8327 50.2487L78.1281 45.0775C78.1281 45.0775 81.0249 41.9676 83.5623 39.8689L105.982 38.9773L107.025 37.8753L110.802 39.6121C113.769 40.978 113.53 44.8421 113.53 44.8421C113.53 44.8421 113.936 49.3196 113.543 50.336Z" fill="#E7C7CA"/>
<path opacity="0.1" d="M89.895 35.8353C89.895 35.8353 95.5285 43.0286 103.032 35.6873C110.536 28.346 103.863 52.0621 103.863 52.0621L87.6708 53.9879L89.895 35.8353Z" fill="black"/>
<path d="M89.895 36.192C89.895 36.192 95.5285 43.3853 103.032 36.044C110.536 28.7027 103.863 52.4188 103.863 52.4188L87.6708 54.3446L89.895 36.192Z" fill="#E7C7CA"/>
<path opacity="0.1" d="M105.351 37.4544L105.947 46.5646L106.585 49.596L107.073 51.9141C107.073 51.9141 108.318 69.7458 107.963 70.6374C107.607 71.529 108.141 72.2422 108.215 72.7166C108.29 73.1909 108.141 74.382 108.199 74.917C108.258 75.452 108.199 75.6891 106.836 75.4983C105.473 75.3075 103.573 74.9758 103.573 74.9758C103.573 74.9758 98.7687 75.3325 97.1085 74.7387C95.4484 74.1449 92.3043 74.1431 92.3043 74.1431C92.3043 74.1431 87.5587 74.2626 86.0178 74.0843C84.4769 73.9059 83.6441 75.9869 82.637 75.3913C81.6299 74.7957 83.8221 69.0325 84.5338 67.3671C85.2455 65.7016 83.5854 61.4826 83.5854 61.4826L85.7206 49.6121L86.1957 46.9213V38.4619L86.3132 38.4209C86.7463 38.2516 87.133 37.9815 87.4413 37.6328L87.9751 46.1456L104.701 46.7412V37.1602" fill="black"/>
<path d="M105.351 37.0978L105.947 46.208L106.585 49.2394L107.073 51.5575C107.073 51.5575 108.318 69.3892 107.963 70.2808C107.607 71.1724 108.141 71.8856 108.215 72.36C108.29 72.8343 108.141 74.0254 108.199 74.5604C108.258 75.0953 108.199 75.3325 106.836 75.1417C105.473 74.9509 103.573 74.6192 103.573 74.6192C103.573 74.6192 98.7687 74.9759 97.1085 74.3821C95.4484 73.7883 92.3043 73.7865 92.3043 73.7865C92.3043 73.7865 87.5587 73.906 86.0178 73.7276C84.4769 73.5493 83.6441 75.6303 82.637 75.0347C81.6299 74.4391 83.8221 68.6759 84.5338 67.0105C85.2455 65.345 83.5854 61.126 83.5854 61.126L85.7206 49.2554L86.1957 46.5646V38.1053L86.3132 38.0643C86.7463 37.895 87.133 37.6248 87.4413 37.2761L87.9751 45.789L104.701 46.3845V36.8036" fill="#E7C7CA"/>
<path opacity="0.1" d="M107.274 18.0857C107.173 17.713 107.032 17.326 106.74 17.0764C106.462 16.8759 106.14 16.7439 105.801 16.6912C104.989 16.4774 104.164 16.3189 103.331 16.2169C103.212 15.821 103.032 15.4461 102.797 15.106C101.053 12.6381 98.4734 10.3111 95.4378 9.78503C93.8488 9.50864 92.0072 9.7565 90.9894 11.0118C90.4307 11.7019 90.1904 12.6167 89.6264 13.2943C88.5392 14.6103 86.5766 14.7725 85.2065 15.7907C84.4751 16.3257 83.9449 17.1014 83.4271 17.8539C82.8666 18.6688 82.2901 19.5176 82.1121 20.4912C81.7563 22.4366 83.0392 24.2911 83.2758 26.2544C83.8097 30.6463 79.1121 34.5425 80 38.8756C80.5178 41.4024 82.847 43.182 85.2563 44.0842C86.105 44.4034 87.0748 44.7208 87.4716 45.5375C87.6495 45.8942 87.6798 46.3061 87.847 46.6663C88.4093 47.8681 90.2581 47.9145 91.2509 47.039C92.2438 46.1634 92.557 44.7476 92.6744 43.4263C93.1513 37.6559 90.8453 31.9551 91.1139 26.1706C91.194 24.4213 91.6851 22.4366 93.2492 21.6449C95.3542 20.575 97.8862 22.3581 100.203 22.0176C101.299 24.6908 101.532 27.6411 100.868 30.4537C100.5 31.9926 99.8631 33.4851 99.8168 35.0721C99.7474 37.4883 101.048 39.6959 102.173 41.8321C102.414 42.2316 102.575 42.6743 102.648 43.1356C102.665 43.6036 102.579 44.0697 102.393 44.4997C101.758 46.2133 100.662 47.8039 100.537 49.6281C100.501 49.8411 100.549 50.0599 100.671 50.238C100.796 50.3568 100.958 50.4297 101.13 50.4448C103.052 50.7747 104.714 49.0682 105.651 47.3546C106.697 45.4619 107.306 43.3586 107.434 41.1991C107.628 37.5686 106.329 33.9969 106.409 30.3628C106.502 26.2312 108.365 22.071 107.274 18.0857Z" fill="black"/>
<path d="M107.452 17.9074C107.351 17.5347 107.21 17.1477 106.918 16.8981C106.64 16.6976 106.318 16.5656 105.979 16.5129C105.167 16.299 104.342 16.1406 103.509 16.0386C103.39 15.6426 103.21 15.2678 102.975 14.9277C101.231 12.4598 98.6513 10.1328 95.6157 9.60672C94.0267 9.33033 92.1851 9.57819 91.1673 10.8335C90.6086 11.5236 90.3684 12.4384 89.8043 13.116C88.7171 14.432 86.7545 14.5942 85.3844 15.6124C84.6531 16.1474 84.1228 16.9231 83.605 17.6755C83.0445 18.4905 82.468 19.3392 82.2901 20.3129C81.9342 22.2583 83.2171 24.1128 83.4538 26.076C83.9876 30.468 79.2901 34.3642 80.178 38.6973C80.6958 41.2241 83.025 43.0037 85.4342 43.9059C86.283 44.2251 87.2527 44.5425 87.6495 45.3592C87.8274 45.7159 87.8577 46.1278 88.025 46.488C88.5872 47.6898 90.436 47.7362 91.4289 46.8606C92.4217 45.9851 92.7349 44.5693 92.8523 43.2479C93.3292 37.4776 91.0232 31.7768 91.2919 25.9922C91.3719 24.243 91.863 22.2583 93.4271 21.4666C95.5321 20.3967 98.0641 22.1798 100.381 21.8392C101.477 24.5125 101.71 27.4628 101.046 30.2754C100.678 31.8143 100.041 33.3068 99.9947 34.8938C99.9253 37.31 101.226 39.5176 102.351 41.6538C102.592 42.0533 102.753 42.496 102.826 42.9573C102.843 43.4253 102.756 43.8914 102.571 44.3214C101.936 46.035 100.84 47.6256 100.715 49.4498C100.679 49.6627 100.727 49.8816 100.849 50.0596C100.974 50.1785 101.136 50.2514 101.308 50.2665C103.23 50.5964 104.891 48.8899 105.829 47.1763C106.875 45.2836 107.484 43.1803 107.612 41.0208C107.806 37.3902 106.507 33.8186 106.587 30.1845C106.68 26.0529 108.543 21.8927 107.452 17.9074Z" fill="#3E373A"/>
<path d="M103.521 96.8607L110.58 97.0871L109.568 91.8411L104.16 92.3564L103.521 96.8607Z" fill="#C3C7D9"/>
<path d="M125.393 84.4266C124.918 85.0204 123.08 86.0903 122.902 86.447C122.724 86.8036 120.53 87.8735 119.402 88.0518C118.274 88.2301 114.717 89.004 114.064 89.4195C113.596 89.7191 109.84 90.6677 107.372 91.1938C106.703 91.3522 106.027 91.4743 105.345 91.5593C104.278 91.6182 92.5943 87.6363 92.5943 87.6363L94.847 85.3182L94.9715 85.2754C95.6085 85.0597 98.5516 84.0629 100.185 83.5886C102.025 83.0536 104.16 80.855 104.16 80.855C104.16 80.855 107.302 79.7851 107.719 79.6656C108.135 79.5461 106.651 75.5055 106.651 75.5055C106.651 75.5055 113.472 74.5568 116.141 73.7526C118.81 72.9484 124.979 73.2462 126.105 76.397C127.231 79.5479 125.875 83.8328 125.393 84.4266Z" fill="#4B4B5B"/>
<path d="M94.3132 94.4712C94.3132 94.4712 92.9502 95.8977 91.5854 95.78C90.2207 95.6624 85.4484 96.1367 85.4484 96.1367C84.5836 96.4824 83.7738 96.9527 83.0445 97.5329C81.9289 98.4138 81.3363 97.7112 81.226 97.5614L81.2064 97.5329C80.6121 99.407 79.2491 97.9787 79.2491 97.9787C79.2491 97.9787 79.8417 92.2726 79.6602 91.5593C79.4787 90.846 80.8328 89.621 80.8328 89.621L82.4342 89.2126L86.4911 88.1713L92.3043 90.1916L94.3132 94.4712Z" fill="#E7C7CA"/>
<path opacity="0.1" d="M82.4271 89.2126L81.226 97.5614L81.2064 97.5329C80.6121 99.407 79.2491 97.9787 79.2491 97.9787C79.2491 97.9787 79.8417 92.2726 79.6602 91.5593C79.4787 90.846 80.8328 89.621 80.8328 89.621L82.4271 89.2126Z" fill="black"/>
<path opacity="0.1" d="M90.822 65.4644C90.822 65.4644 93.9644 66.5343 96.6939 65.4644H90.822Z" fill="black"/>
<path opacity="0.1" d="M101.55 67.4865C101.55 67.4865 102.854 68.1392 103.863 67.4865H101.55Z" fill="black"/>
<path opacity="0.1" d="M101.55 69.0343C101.55 69.0343 103.744 69.3285 104.16 68.7347L101.55 69.0343Z" fill="black"/>
<path opacity="0.1" d="M100.838 72.3599C100.838 72.3599 104.959 71.825 105.982 71.1117L100.838 72.3599Z" fill="black"/>
<path opacity="0.1" d="M88.2633 71.1117C88.2633 71.1117 90.5765 72.4188 92.2971 72.3599L88.2633 71.1117Z" fill="black"/>
<path opacity="0.1" d="M107.37 91.1937C106.702 91.3522 106.025 91.4742 105.343 91.5593C104.276 91.6181 92.5925 87.6363 92.5925 87.6363L94.8452 85.3182L94.9698 85.2754C95.3256 85.5268 95.6174 85.7426 95.8256 85.9067C96.8061 86.6806 97.7527 85.6695 98.1086 85.6695C98.4644 85.6695 101.548 88.2248 101.548 88.2248C101.548 88.2248 104.395 88.8792 104.87 89.473C105.345 90.0668 107.005 89.9491 107.301 90.3646C107.39 90.493 107.4 90.8086 107.37 91.1937Z" fill="black"/>
<path d="M85.4484 75.7479C85.4484 75.7479 82.5694 75.9138 80.9092 75.213C79.2491 74.5122 73.7331 72.8949 72.1317 74.0307C70.5302 75.1666 66.6744 76.1705 68.4537 80.6891C70.2331 85.2076 71.064 85.3253 71.064 85.3253C71.6146 85.7391 72.0952 86.2388 72.4875 86.8054C73.0213 87.6381 78.0036 89.539 79.2491 89.539C80.4947 89.539 82.6886 89.539 85.7722 91.6788C88.8559 93.8186 91.6441 94.0575 91.6441 94.0575C91.6441 94.0575 95.5587 95.6623 96.7776 96.019C97.9964 96.3756 103.566 97.9198 104.872 97.4455C106.178 96.9712 107.007 93.9969 107.007 93.9969C107.007 93.9969 107.6 91.3221 107.302 90.9066C107.005 90.4912 105.345 90.6089 104.872 90.0151C104.399 89.4213 101.55 88.7668 101.55 88.7668C101.55 88.7668 98.4733 86.2098 98.1174 86.2098C97.7616 86.2098 96.8149 87.219 95.8345 86.4469C93.8815 84.9973 91.8296 83.6864 89.6939 82.524C87.4413 81.3346 85.4484 75.7479 85.4484 75.7479Z" fill="#4B4B5B"/>
<path opacity="0.1" d="M79.6602 77.4722C80.1728 77.3673 80.7026 77.3824 81.2085 77.5163C81.7143 77.6502 82.1825 77.8994 82.5765 78.2444C84 79.4337 88.79 81.8214 88.79 81.8214" fill="black"/>
<path opacity="0.1" d="M115.251 77.3974C115.251 77.3974 108.904 78.3603 107.719 79.6674L115.251 77.3974Z" fill="black"/>
<path d="M122.546 97.0871H122.267C121.263 97.0514 117.863 96.9444 117.208 97.0871C116.438 97.2654 106.235 97.0871 106.235 97.0871L108.23 96.6716C108.23 96.6716 107.489 94.0718 107.959 93.856C107.959 93.856 105.29 92.0942 107.302 90.9049C109.315 89.7155 111.484 90.2166 111.484 90.2166L116.536 88.5011L117.505 88.1713C117.505 88.1713 123.199 88.4691 124.74 92.392C126.281 96.315 122.546 97.0871 122.546 97.0871Z" fill="#E7C7CA"/>
<path opacity="0.1" d="M122.546 97.0871H122.267C123.923 95.7176 127.671 91.5486 116.536 88.5101L117.505 88.1802C117.505 88.1802 123.199 88.478 124.74 92.4009C126.281 96.3239 122.546 97.0871 122.546 97.0871Z" fill="black"/>
<path d="M112.078 92.4651C112.25 92.4651 112.39 92.3254 112.39 92.1531C112.39 91.9808 112.25 91.8411 112.078 91.8411C111.906 91.8411 111.767 91.9808 111.767 92.1531C111.767 92.3254 111.906 92.4651 112.078 92.4651Z" fill="#4B4B5B"/>
<path d="M110.269 92.9805C110.441 92.9805 110.58 92.8408 110.58 92.6684C110.58 92.4961 110.441 92.3564 110.269 92.3564C110.097 92.3564 109.957 92.4961 109.957 92.6684C109.957 92.8408 110.097 92.9805 110.269 92.9805Z" fill="#4B4B5B"/>
<g opacity="0.1">
<path opacity="0.1" d="M101.452 26.7251C101.521 24.7638 101.173 22.8102 100.431 20.994C98.1174 21.3399 95.5836 19.5514 93.4768 20.6213C91.9181 21.4131 91.4288 23.3977 91.3416 25.147C91.3202 25.6088 91.3167 26.0707 91.3256 26.5325C91.3256 26.3685 91.3256 26.2026 91.3416 26.0386C91.4235 24.2893 91.9128 22.3046 93.4768 21.5129C95.5836 20.443 98.1139 22.2262 100.431 21.8856C101.059 23.4239 101.405 25.0635 101.452 26.7251Z" fill="black"/>
<path opacity="0.1" d="M83.5267 26.3988C83.5571 26.0102 83.5494 25.6196 83.5035 25.2326C83.3149 23.6634 82.4591 22.1638 82.3042 20.6338C82.105 22.4794 83.2776 24.2519 83.5035 26.1242C83.5267 26.2205 83.5267 26.3061 83.5267 26.3988Z" fill="black"/>
<path opacity="0.1" d="M92.9021 42.4009C92.7918 43.7241 92.4804 45.1381 91.4787 46.0154C90.4769 46.8927 88.6317 46.8446 88.0747 45.6427C87.8968 45.2861 87.8701 44.8706 87.6975 44.514C87.3025 43.6973 86.331 43.3799 85.4822 43.0607C83.0712 42.1566 80.7456 40.386 80.2278 37.8521C80.1815 37.6225 80.15 37.3902 80.1335 37.1566C80.0897 37.6875 80.1215 38.2218 80.2278 38.7437C80.7456 41.2704 83.0747 43.0482 85.4822 43.9523C86.331 44.2715 87.3025 44.5889 87.6975 45.4056C87.8755 45.7622 87.9057 46.1741 88.0747 46.5343C88.6352 47.7362 90.484 47.7825 91.4787 46.907C92.4733 46.0315 92.7829 44.6156 92.9021 43.2925C92.9563 42.5961 92.9747 41.8974 92.9573 41.1991C92.9573 41.6039 92.9342 42.0033 92.9021 42.4009Z" fill="black"/>
<path opacity="0.1" d="M106.646 29.3392C106.646 29.5978 106.646 29.8546 106.646 30.1113C106.746 26.7947 107.959 23.4601 107.84 20.213C107.747 23.2158 106.714 26.2865 106.646 29.3392Z" fill="black"/>
<path opacity="0.1" d="M102.827 42.7558C102.871 42.5442 102.885 42.3275 102.868 42.1121C102.797 41.6506 102.635 41.2077 102.393 40.8086C101.365 38.8471 100.192 36.8392 100.053 34.662C100.053 34.7547 100.041 34.8403 100.039 34.9402C99.968 37.3546 101.269 39.5639 102.393 41.7001C102.584 42.031 102.73 42.386 102.827 42.7558Z" fill="black"/>
<path opacity="0.1" d="M107.669 40.1755C107.536 42.3359 106.923 44.4391 105.874 46.331C104.934 48.0447 103.274 49.7511 101.351 49.4213C101.178 49.4064 101.016 49.3327 100.891 49.2126C100.855 49.1718 100.827 49.1246 100.808 49.0735C100.786 49.2126 100.769 49.3535 100.758 49.4962C100.721 49.7085 100.769 49.9269 100.891 50.1042C101.016 50.2243 101.178 50.298 101.351 50.3128C103.274 50.6427 104.934 48.9362 105.874 47.2226C106.923 45.3307 107.536 43.2275 107.669 41.0671C107.69 40.6499 107.692 40.2344 107.68 39.8189C107.676 39.9384 107.676 40.0561 107.669 40.1755Z" fill="black"/>
</g>
<path opacity="0.1" d="M107.959 93.856C107.959 93.856 112.463 95.7498 115.432 91.5593" stroke="black" stroke-miterlimit="10"/>
<path opacity="0.1" d="M108.845 97.1656C108.845 97.1656 112.523 94.769 117.208 97.0871" stroke="black" stroke-miterlimit="10"/>
<path opacity="0.1" d="M84.226 96.6217C84.226 96.6217 85.7705 93.1303 89.895 95.7925" stroke="black" stroke-miterlimit="10"/>
<path opacity="0.1" d="M79.2189 44.9883L82.3683 42.1353C82.3683 42.1353 94.5801 41.3328 95.0854 45.493C95.0854 45.493 99.4146 40.5607 108.52 41.6591L112.372 44.7333L101.724 49.4159L91.3772 53.0126L83.7562 49.5942L79.2189 44.9883Z" fill="black"/>
<path d="M79.2189 45.1666L82.3683 42.3135C82.3683 42.3135 94.5801 41.5111 95.0854 45.6712C95.0854 45.6712 99.4146 40.739 108.52 41.8374L112.372 44.9116L101.724 49.5942L91.3772 53.1909L83.7562 49.7725L79.2189 45.1666Z" fill="#D5D6DB"/>
<path opacity="0.1" d="M77.8256 45.5233L79.2189 62.2262L93.9875 62.9698L93.347 46.3382L93.3345 46.0582L77.8256 45.5233Z" fill="black"/>
<path d="M77.8256 45.1666L79.2189 61.8695L93.9875 62.6131L93.347 45.9815L93.3345 45.7016L77.8256 45.1666Z" fill="#4DAD52"/>
<path opacity="0.1" d="M113.048 45.1666L97.8132 47.4562V64.234L112.701 62.0782L113.048 45.1666Z" fill="black"/>
<path d="M113.048 44.81L97.8132 47.0996V63.8774L112.701 61.7215L113.048 44.81Z" fill="#4DAD52"/>
<path opacity="0.3" d="M109.456 48.9042L101.226 49.8207L101.406 52.631L109.45 51.7501L109.456 48.9042Z" fill="white"/>
<path d="M80.0196 70.8139L80.8577 73.0732C80.8577 73.0732 82.1032 74.1431 83.4662 73.6082C84.8292 73.0732 86.0178 72.8075 86.6103 72.2868C87.2029 71.7661 88.0338 69.1502 88.0338 69.1502C88.0338 69.1502 88.8648 66.2972 89.694 65.5839C90.5231 64.8706 92.7189 55.0436 89.694 56.0047C86.669 56.9659 84.3559 65.8817 84.3559 65.8817C84.3559 65.8817 83.8221 66.5343 83.0516 66.595C82.2811 66.6556 80.7384 66.4755 80.4413 67.1299C80.1441 67.7843 79.1299 69.5069 80.0196 70.8139Z" fill="#BE6F72"/>
<path opacity="0.1" d="M97.8132 47.4544C97.0332 47.6306 96.2229 47.6214 95.447 47.4275C94.6712 47.2337 93.9514 46.8606 93.3452 46.3382L93.9876 62.968C93.9876 62.968 95.5 64.6085 97.8132 64.234V47.4544Z" fill="black"/>
<path d="M97.8132 47.0978C97.0332 47.2739 96.2229 47.2647 95.447 47.0709C94.6712 46.8771 93.9514 46.504 93.3452 45.9815L93.9876 62.6113C93.9876 62.6113 95.5 64.2519 97.8132 63.8774V47.0978Z" fill="#4DAD52"/>
<path opacity="0.1" d="M97.8132 47.0978C97.0332 47.2739 96.2229 47.2647 95.447 47.0709C94.6712 46.8771 93.9514 46.504 93.3452 45.9815L93.9876 62.6113C93.9876 62.6113 95.5 64.2519 97.8132 63.8774V47.0978Z" fill="black"/>
<path opacity="0.1" d="M98.169 45.2237C98.169 45.2237 104.367 43.3246 105.982 43.5921L98.169 45.2237Z" fill="black"/>
<path opacity="0.1" d="M91.2367 44.3945C91.2367 44.3945 85.2295 42.968 84.226 43.3728L91.2367 44.3945Z" fill="black"/>
<path opacity="0.1" d="M102.077 45.4609C102.077 45.4609 106.221 43.938 107.719 44.662L102.077 45.4609Z" fill="black"/>
<path opacity="0.1" d="M99.9893 83.6616C100.632 83.1783 101.315 82.7529 102.032 82.3902C103.1 81.8749 105.057 80.5375 105.057 80.5375" fill="black"/>
<path opacity="0.1" d="M84.226 65.4644C84.226 65.4644 81.6263 67.5953 80.8452 67.7825C80.064 67.9698 79.5818 69.6317 79.5818 69.6317" fill="black"/>
<path d="M111.52 70.4965L110.69 72.7611C110.69 72.7611 109.445 73.831 108.08 73.2961C106.715 72.7611 105.53 72.4954 104.936 71.9748C104.342 71.4541 103.512 68.8382 103.512 68.8382C103.512 68.8382 102.683 65.9851 101.852 65.2718C101.021 64.5586 98.8274 54.7315 101.852 55.6927C104.877 56.6538 107.19 65.5696 107.19 65.5696C107.19 65.5696 107.724 66.2223 108.495 66.2829C109.265 66.3435 110.808 66.1634 111.105 66.8178C111.402 67.4723 112.409 69.1948 111.52 70.4965Z" fill="#BE6F72"/>
<path opacity="0.1" d="M110.066 66.3311C110.066 66.3311 111.765 67.4259 111.758 68.7348L110.066 66.3311Z" fill="black"/>
<path d="M95.6477 34.5942C100.037 34.5942 103.596 31.028 103.596 26.6288C103.596 22.2297 100.037 18.6634 95.6477 18.6634C91.2579 18.6634 87.6993 22.2297 87.6993 26.6288C87.6993 31.028 91.2579 34.5942 95.6477 34.5942Z" fill="#BE6F72"/>
<path d="M90.6566 24.4908C91.621 24.3392 92.4662 23.7775 93.3879 23.4548C95.4502 22.729 97.7314 23.2266 99.8185 23.881C100.619 24.1324 101.432 24.4159 102.272 24.4159C103.112 24.4159 104.004 24.0718 104.432 23.346C104.827 22.6791 104.751 21.8125 104.418 21.1117C104.085 20.4109 103.529 19.8474 102.966 19.3161C101.116 17.565 98.8203 15.928 96.2812 16.1064C95.2598 16.1795 94.283 16.545 93.3435 16.9498C92.1605 17.4607 91.009 18.0418 89.8951 18.6902C89.0392 19.1877 87.4538 19.8528 86.9609 20.7622C85.8399 22.8111 88.9129 24.7654 90.6566 24.4908Z" fill="#3E373A"/>
<path opacity="0.1" d="M104.432 22.5971C104.004 23.3228 103.112 23.667 102.272 23.667C101.432 23.667 100.619 23.3942 99.8167 23.1427C97.7295 22.4883 95.4502 21.989 93.3861 22.7166C92.4662 23.0393 91.6192 23.6081 90.6548 23.7508C89.2491 23.9719 86.9858 22.7451 86.7402 21.1848C86.4644 22.9876 89.089 24.5318 90.6548 24.2857C91.6192 24.1342 92.4662 23.5725 93.3861 23.2515C95.4502 22.524 97.7295 23.0233 99.8167 23.6777C100.619 23.9291 101.431 24.2126 102.272 24.2019C103.114 24.1912 104.004 23.8596 104.432 23.132C104.655 22.7362 104.742 22.2786 104.681 21.8285C104.654 22.0995 104.569 22.3615 104.432 22.5971Z" fill="black"/>
<path d="M168.936 119.236C168.936 119.236 169.991 120.618 168.448 122.706C166.906 124.794 165.635 126.556 166.148 127.857C166.148 127.857 168.475 123.981 170.368 123.926C172.262 123.87 171.016 121.566 168.936 119.236Z" fill="#4DAD52"/>
<path opacity="0.1" d="M168.936 119.236C169.028 119.369 169.1 119.515 169.151 119.669C170.998 121.845 171.984 123.876 170.206 123.926C168.552 123.974 166.568 126.939 166.093 127.686C166.108 127.747 166.126 127.806 166.148 127.865C166.148 127.865 168.475 123.988 170.368 123.933C172.262 123.877 171.016 121.566 168.936 119.236Z" fill="black"/>
<path d="M170.893 120.998C170.893 121.484 170.838 121.878 170.772 121.878C170.706 121.878 170.649 121.484 170.649 120.998C170.649 120.511 170.717 120.741 170.785 120.741C170.852 120.741 170.893 120.511 170.893 120.998Z" fill="#FFD037"/>
<path d="M171.568 121.579C171.142 121.811 170.77 121.952 170.738 121.893C170.706 121.834 171.025 121.597 171.45 121.358C171.875 121.119 171.708 121.294 171.74 121.358C171.772 121.422 171.995 121.345 171.568 121.579Z" fill="#FFD037"/>
<path d="M163.359 119.236C163.359 119.236 162.304 120.618 163.847 122.706C165.39 124.794 166.66 126.556 166.146 127.857C166.146 127.857 163.82 123.981 161.925 123.926C160.03 123.87 161.285 121.566 163.359 119.236Z" fill="#4DAD52"/>
<path opacity="0.1" d="M163.359 119.236C163.268 119.369 163.195 119.515 163.144 119.669C161.297 121.845 160.311 123.876 162.089 123.926C163.742 123.974 165.728 126.939 166.203 127.686C166.188 127.747 166.169 127.807 166.146 127.865C166.146 127.865 163.82 123.988 161.925 123.933C160.03 123.877 161.285 121.566 163.359 119.236Z" fill="black"/>
<path d="M161.399 120.998C161.399 121.484 161.452 121.878 161.52 121.878C161.587 121.878 161.642 121.484 161.642 120.998C161.642 120.511 161.573 120.741 161.507 120.741C161.441 120.741 161.399 120.511 161.399 120.998Z" fill="#FFD037"/>
<path d="M160.726 121.579C161.151 121.811 161.523 121.952 161.555 121.893C161.587 121.834 161.269 121.597 160.843 121.358C160.418 121.119 160.585 121.294 160.553 121.358C160.521 121.422 160.299 121.345 160.726 121.579Z" fill="#FFD037"/>
<path opacity="0.1" d="M166.148 138.435C172.241 138.435 177.18 137.676 177.18 136.739C177.18 135.803 172.241 135.044 166.148 135.044C160.055 135.044 155.116 135.803 155.116 136.739C155.116 137.676 160.055 138.435 166.148 138.435Z" fill="#4DAD52"/>
<path d="M171.826 125.994L171.772 126.426L171.697 127.035L171.667 127.29L171.593 127.9L171.56 128.155L171.488 128.763L170.642 135.7C170.568 136.319 169.559 136.802 168.34 136.802H163.954C162.735 136.802 161.728 136.319 161.651 135.7L160.806 128.763L160.731 128.155L160.701 127.9L160.626 127.29L160.594 127.035L160.521 126.426L160.468 125.994C160.427 125.637 160.972 125.349 161.662 125.349H170.633C171.322 125.349 171.868 125.643 171.826 125.994Z" fill="#65617D"/>
<path d="M171.772 126.426L171.699 127.035H160.596L160.521 126.426H171.772Z" fill="#9D9CB5"/>
<path d="M171.667 127.29L171.594 127.9H160.701L160.626 127.29H171.667Z" fill="#9D9CB5"/>
<path d="M171.562 128.155L171.488 128.765H160.806L160.733 128.155H171.562Z" fill="#9D9CB5"/>
</g>
<defs>
<linearGradient id="paint0_linear" x1="97.2669" y1="98.4994" x2="97.2669" y2="8.99866" gradientUnits="userSpaceOnUse">
<stop stop-color="#808080" stop-opacity="0.25"/>
<stop offset="0.54" stop-color="#808080" stop-opacity="0.12"/>
<stop offset="1" stop-color="#808080" stop-opacity="0.1"/>
</linearGradient>
<clipPath id="clip0">
<rect width="182" height="163" fill="white"/>
</clipPath>
</defs>
</svg>
