<svg width="254" height="163" viewBox="0 0 254 163" fill="none" xmlns="http://www.w3.org/2000/svg">
<path opacity="0.4" d="M8.40258 67.8762C11.3678 67.8762 13.7716 65.4725 13.7716 62.5075C13.7716 59.5425 11.3678 57.1388 8.40258 57.1388C5.43732 57.1388 3.03351 59.5425 3.03351 62.5075C3.03351 65.4725 5.43732 67.8762 8.40258 67.8762Z" fill="#4DAD52"/>
<path opacity="0.4" d="M183.682 66.1139C187.909 66.1139 191.335 62.6874 191.335 58.4607C191.335 54.2339 187.909 50.8075 183.682 50.8075C179.455 50.8075 176.028 54.2339 176.028 58.4607C176.028 62.6874 179.455 66.1139 183.682 66.1139Z" fill="#4DAD52"/>
<path opacity="0.4" d="M163.203 70.8152C166.168 70.8152 168.572 68.4116 168.572 65.4466C168.572 62.4815 166.168 60.0779 163.203 60.0779C160.238 60.0779 157.834 62.4815 157.834 65.4466C157.834 68.4116 160.238 70.8152 163.203 70.8152Z" fill="#4DAD52"/>
<path d="M69.1642 99.8239H24.9482C16.6639 99.8239 9.94818 106.54 9.94818 114.824V121.807C9.94818 130.091 16.6639 136.807 24.9482 136.807H69.1642C77.4485 136.807 84.1642 130.091 84.1642 121.807V114.824C84.1642 106.54 77.4485 99.8239 69.1642 99.8239Z" fill="#3F3D56"/>
<path d="M232.782 100.069H188.566C180.282 100.069 173.566 106.785 173.566 115.069V121.807C173.566 130.091 180.282 136.807 188.566 136.807H232.782C241.067 136.807 247.782 130.091 247.782 121.807V115.069C247.782 106.785 241.067 100.069 232.782 100.069Z" fill="#3F3D56"/>
<path d="M69.1642 62.5962H24.9482C16.6639 62.5962 9.94818 69.3119 9.94818 77.5962V85.8036C9.94818 94.0878 16.6639 100.804 24.9482 100.804H69.1642C77.4485 100.804 84.1642 94.0878 84.1642 85.8036V77.5962C84.1642 69.3119 77.4485 62.5962 69.1642 62.5962Z" fill="#F5F5F5"/>
<path d="M150.973 100.069H106.757C98.473 100.069 91.7573 106.785 91.7573 115.069V121.807C91.7573 130.091 98.473 136.807 106.757 136.807H150.973C159.258 136.807 165.973 130.091 165.973 121.807V115.069C165.973 106.785 159.258 100.069 150.973 100.069Z" fill="#3F3D56"/>
<path d="M150.973 62.5962H106.757C98.473 62.5962 91.7573 69.3119 91.7573 77.5962V85.8036C91.7573 94.0878 98.473 100.804 106.757 100.804H150.973C159.258 100.804 165.973 94.0878 165.973 85.8036V77.5962C165.973 69.3119 159.258 62.5962 150.973 62.5962Z" fill="#F5F5F5"/>
<path d="M232.782 62.5962H188.566C180.282 62.5962 173.566 69.3119 173.566 77.5962V85.8036C173.566 94.0878 180.282 100.804 188.566 100.804H232.782C241.067 100.804 247.782 94.0878 247.782 85.8036V77.5962C247.782 69.3119 241.067 62.5962 232.782 62.5962Z" fill="#F5F5F5"/>
<path d="M126.354 96.9609L119.725 73.4385C119.696 73.3357 119.59 73.2758 119.487 73.3048C119.384 73.3338 119.324 73.4406 119.353 73.5434L125.982 97.0658C126.011 97.1686 126.118 97.2285 126.221 97.1995C126.323 97.1705 126.383 97.0637 126.354 96.9609Z" fill="#3F3D56"/>
<path d="M132.144 86.3583C132.276 87.0196 132.359 87.6853 132.401 88.3492C132.788 94.4918 125.378 94.7709 124.141 88.7417C122.68 81.4107 122.514 75.2646 123.771 75.0142C125.028 74.7637 130.683 79.0272 132.144 86.3583Z" fill="#307B34"/>
<path d="M116.14 93.0087C116.516 93.569 116.929 94.0977 117.37 94.5961C121.448 99.2053 126.875 94.1535 123.478 89.0218C119.315 82.8125 115.078 78.3572 114.013 79.0707C112.949 79.7842 111.978 86.7994 116.14 93.0087Z" fill="#67B96B"/>
<path d="M212.109 96.3548L210.206 71.9906C210.197 71.8841 210.104 71.8045 209.998 71.8128C209.891 71.8211 209.812 71.9142 209.82 72.0207L211.724 96.3849C211.732 96.4914 211.825 96.571 211.932 96.5627C212.038 96.5544 212.118 96.4613 212.109 96.3548Z" fill="#3F3D56"/>
<path d="M219.86 87.0881C219.86 87.7624 219.811 88.4316 219.722 89.0909C218.901 95.1906 211.58 94.0161 211.545 87.8615C211.545 80.3863 212.584 74.3264 213.865 74.3264C215.147 74.3264 219.86 79.6128 219.86 87.0881Z" fill="#4DAD52"/>
<path d="M141.122 74.0325L130.447 96.017C130.401 96.1131 130.441 96.2288 130.537 96.2754C130.633 96.3221 130.749 96.282 130.795 96.1859L141.47 74.2014C141.516 74.1053 141.476 73.9896 141.38 73.943C141.284 73.8963 141.168 73.9364 141.122 74.0325Z" fill="#3F3D56"/>
<path d="M142.167 92.1078C141.826 92.6898 141.446 93.2426 141.036 93.7667C137.244 98.6144 131.521 93.9003 134.602 88.5723C138.381 82.1225 142.341 77.4189 143.446 78.0667C144.552 78.7144 145.946 85.6579 142.167 92.1078Z" fill="#449E49"/>
<path d="M125.787 86.4465C125.696 87.1146 125.653 87.7841 125.652 88.4493C125.637 94.6041 133.05 94.434 133.92 88.3411C134.935 80.935 134.728 74.7902 133.458 74.6163C132.189 74.4424 126.802 79.0404 125.787 86.4465Z" fill="#4DAD52"/>
<path d="M202.864 90.4827C203.123 91.1055 203.425 91.7048 203.76 92.2798C206.859 97.5972 213.169 93.7034 210.84 88.0065C207.971 81.1035 204.686 75.9062 203.503 76.3979C202.319 76.8896 199.996 83.5797 202.864 90.4827Z" fill="#3D9D51"/>
<path d="M209.998 74.3265C211.386 74.3265 212.511 73.201 212.511 71.8128C212.511 70.4245 211.386 69.2991 209.998 69.2991C208.609 69.2991 207.484 70.4245 207.484 71.8128C207.484 73.201 208.609 74.3265 209.998 74.3265Z" fill="#3F3D56"/>
<path d="M210.965 71.4261C211.605 71.4261 212.125 70.9067 212.125 70.2659C212.125 69.6252 211.605 69.1058 210.965 69.1058C210.324 69.1058 209.804 69.6252 209.804 70.2659C209.804 70.9067 210.324 71.4261 210.965 71.4261Z" fill="#4DAD52"/>
<path d="M67.841 53.249L65.9374 28.8847C65.9291 28.7782 65.836 28.6987 65.7295 28.707C65.6231 28.7153 65.5435 28.8084 65.5518 28.9149L67.4554 53.2791C67.4637 53.3856 67.5568 53.4652 67.6633 53.4568C67.7697 53.4485 67.8493 53.3555 67.841 53.249Z" fill="#3F3D56"/>
<path d="M75.5916 43.9823C75.5916 44.6567 75.5428 45.3258 75.4541 45.9852C74.6329 52.0849 67.3117 50.9104 67.2766 44.7557C67.2766 37.2805 68.3155 31.2207 69.5971 31.2207C70.8786 31.2207 75.5916 36.5071 75.5916 43.9823Z" fill="#4DAD52"/>
<path d="M58.5963 47.3769C58.8552 47.9998 59.157 48.5991 59.4921 49.174C62.5912 54.4914 68.9009 50.5976 66.5716 44.9008C63.7031 37.9978 60.4182 32.8004 59.2348 33.2922C58.0513 33.7839 55.7277 40.4739 58.5963 47.3769Z" fill="#4DAD52"/>
<path d="M65.7296 31.2207C67.1179 31.2207 68.2434 30.0953 68.2434 28.707C68.2434 27.3188 67.1179 26.1934 65.7296 26.1934C64.3412 26.1934 63.2157 27.3188 63.2157 28.707C63.2157 30.0953 64.3412 31.2207 65.7296 31.2207Z" fill="#3F3D56"/>
<path d="M66.6965 28.3203C67.3373 28.3203 67.8568 27.8009 67.8568 27.1602C67.8568 26.5194 67.3373 26 66.6965 26C66.0557 26 65.5363 26.5194 65.5363 27.1602C65.5363 27.8009 66.0557 28.3203 66.6965 28.3203Z" fill="#4DAD52"/>
<path d="M119.487 76.1245C120.875 76.1245 122.001 74.9991 122.001 73.6109C122.001 72.2226 120.875 71.0972 119.487 71.0972C118.098 71.0972 116.973 72.2226 116.973 73.6109C116.973 74.9991 118.098 76.1245 119.487 76.1245Z" fill="#3F3D56"/>
<path d="M120.133 73.065C120.773 73.065 121.293 72.5456 121.293 71.9049C121.293 71.2641 120.773 70.7447 120.133 70.7447C119.492 70.7447 118.972 71.2641 118.972 71.9049C118.972 72.5456 119.492 73.065 120.133 73.065Z" fill="#4DAD52"/>
<path d="M141.38 76.7628C142.769 76.7628 143.894 75.6373 143.894 74.2491C143.894 72.8608 142.769 71.7354 141.38 71.7354C139.992 71.7354 138.866 72.8608 138.866 74.2491C138.866 75.6373 139.992 76.7628 141.38 76.7628Z" fill="#3F3D56"/>
<path d="M142.996 74.5633C143.637 74.5633 144.156 74.0438 144.156 73.4031C144.156 72.7624 143.637 72.243 142.996 72.243C142.355 72.243 141.836 72.7624 141.836 73.4031C141.836 74.0438 142.355 74.5633 142.996 74.5633Z" fill="#4DAD52"/>
<path d="M70.9699 60.3011C71.3246 60.0431 71.4677 59.5834 71.3022 59.1772C70.7125 57.7299 69.2581 54.6174 68.1387 55.995C67.0673 57.3136 68.8207 59.3077 69.7843 60.2386C70.1085 60.5519 70.6053 60.5662 70.9699 60.3011Z" fill="#A0616A"/>
<path d="M81.4298 54.8975C81.1549 54.5615 80.6969 54.4372 80.2899 54.588C79.9672 54.7076 79.7267 54.9815 79.6593 55.3189C79.5051 56.0907 79.2653 57.4521 79.4216 57.7648C79.6429 58.2072 79.7535 57.8754 79.4216 58.7602C79.0898 59.6451 78.0942 61.9679 77.9836 62.2997C77.9032 62.5408 74.5517 61.3217 72.7256 60.1704C72.2291 59.8574 70.928 59.7032 70.5072 60.1124C70.1673 60.443 70.0319 61.1927 70.4156 61.4713C72.3633 62.8856 77.0864 66.3103 77.873 66.8347C78.8685 67.4983 79.4216 67.1665 80.3066 66.3922C80.8054 65.9558 82.2182 63.7267 83.3561 61.8647C84.329 60.2726 84.1682 58.2442 82.9867 56.8002L81.4298 54.8975Z" fill="#575A89"/>
<path d="M76.4653 93.1083C77.2916 93.3529 77.3234 94.5439 78.0942 94.9293C78.3155 95.0399 79.9747 97.8051 78.0942 98.3582C76.2137 98.9112 75.1076 98.69 74.6651 98.9112C74.2226 99.1324 66.4795 99.5749 66.3688 98.3582C66.3604 98.2658 66.375 98.1792 66.409 98.098C67.4271 95.6695 71.4001 96.2823 73.3176 94.4775C73.7424 94.0778 74.0808 93.6929 74.2226 93.3808C74.5296 92.7056 75.5858 92.8479 76.4653 93.1083Z" fill="#2F2E41"/>
<path d="M98.3915 96.1103C99.4921 95.9318 100.594 96.4458 101.105 97.4366C101.807 98.797 102.608 100.57 102.209 100.902C101.545 101.455 95.0814 103.471 94.1337 103.557C92.9169 103.667 92.032 102.672 93.0275 102.119C94.0231 101.566 96.1248 99.243 96.1248 98.4688C96.1248 97.3211 96.9572 96.3428 98.0901 96.1591L98.3915 96.1103Z" fill="#2F2E41"/>
<path d="M95.1235 66.562C99.9218 66.3192 104.574 69.3875 101.75 73.2747C101.65 73.4123 101.545 73.5515 101.434 73.6924C97.786 78.3354 99.0113 84.6038 99.222 90.505C99.3327 93.602 100.107 92.9384 100.328 94.2657C100.549 95.593 101.545 94.9293 100.771 95.9248C99.9964 96.9203 97.1203 97.8051 96.2354 97.0309C95.931 96.7525 95.6933 96.4089 95.5401 96.0259C95.3869 95.6429 95.322 95.2303 95.3504 94.8187C95.3504 94.3763 93.8018 91.8323 93.6912 91.058C93.6153 90.527 91.6663 87.3945 90.4492 85.4788C89.8144 84.4796 89.256 83.418 89.0736 82.2484C88.8763 80.9836 88.8436 79.2911 89.709 78.1168C90.3947 77.1862 89.1955 76.389 88.3421 77.1685C87.1431 78.2638 85.8391 79.2861 84.6902 79.8082C84.5701 79.8628 84.4444 79.8973 84.317 79.9314C83.9834 80.0207 83.3495 80.2486 83.5144 80.6608C83.7357 81.2138 83.5144 81.5456 83.1826 82.0987C82.8507 82.6517 80.5278 89.0671 79.7535 90.7262C78.9791 92.3853 79.311 93.3808 78.426 93.9338C77.5411 94.4869 73.5589 94.0445 73.5589 93.4914C73.5589 92.9384 74.112 91.5005 74.4438 90.7262C74.7757 89.9519 77.4305 80.9926 77.2093 79.4441C76.988 77.8955 77.3199 75.794 78.9791 74.9091C80.6384 74.0242 89.0453 66.8347 89.4877 66.8347C89.6825 66.8347 92.2784 66.706 95.1235 66.562Z" fill="#2F2E41"/>
<path d="M80.5278 48.8054C83.0936 48.8054 85.1737 46.7255 85.1737 44.1598C85.1737 41.5941 83.0936 39.5143 80.5278 39.5143C77.9619 39.5143 75.8818 41.5941 75.8818 44.1598C75.8818 46.7255 77.9619 48.8054 80.5278 48.8054Z" fill="#A0616A"/>
<path d="M80.5016 46.8812C82.4764 45.4121 85.0775 47.0245 87.4967 47.4781C88.0389 47.5797 87.8128 48.1278 87.2384 48.8391C85.4224 51.088 82.8259 48.2851 79.9747 47.8099C79.5326 47.7362 79.8635 47.3558 80.5016 46.8812Z" fill="#A0616A"/>
<path d="M79.7535 54.9995C79.7535 56.2201 82.8623 59.3537 83.8018 60.2729C83.9788 60.446 84.1625 60.6095 84.3523 60.7685L87.0115 62.9963C87.7474 63.6127 87.7822 65.0533 88.7135 65.2861C89.156 65.3967 89.709 65.3967 89.2666 66.0604C88.8241 66.724 87.7179 68.1619 88.7135 68.3831C89.0136 68.4288 89.3161 68.4576 89.6194 68.4694C89.8849 68.4849 90.1969 68.4993 90.5475 68.5126C91.3661 68.5413 92.3904 68.5601 93.4999 68.5524C93.8151 68.5513 94.1359 68.5476 94.4622 68.5413C98.6447 68.4583 103.49 67.9772 103.094 66.3922C102.43 63.7376 102.872 62.8527 101.434 61.4148C100.32 60.3003 98.6738 57.0598 97.9896 55.6582C97.7756 55.2198 97.5523 54.7925 97.2885 54.3821C96.1982 52.686 92.9741 48.03 89.9772 47.256C89.4427 47.1179 88.8857 47.0752 88.3518 46.935C87.9781 46.8365 87.5829 46.8581 87.2222 46.9967C86.8615 47.1352 86.5535 47.3837 86.3419 47.707C85.5653 48.8894 84.3408 50.6658 83.6251 51.2388C83.0713 51.6818 81.7365 51.9953 81.2417 52.5034C80.5363 53.2276 79.7535 54.2094 79.7535 54.9995Z" fill="#575A89"/>
<path d="M90.5033 72.1314C89.9729 71.9442 89.3843 72.1454 89.1099 72.6365C88.298 74.0896 86.8995 77.0157 88.3816 77.6744C89.8538 78.3286 90.8422 75.1734 91.2574 73.4843C91.3997 72.9054 91.0655 72.3298 90.5033 72.1314Z" fill="#A0616A"/>
<path d="M83.565 43.6351C83.3867 43.6126 83.3303 43.3876 83.3003 43.2104C83.1396 42.2616 82.4324 41.3619 81.4823 41.2087C81.1191 41.1604 80.7498 41.1901 80.3991 41.296C79.8966 41.4339 79.425 41.666 79.0092 41.98C78.8058 42.166 78.5705 42.3137 78.3147 42.4161C78.1403 42.4673 77.4001 42.7964 77.2272 42.8521C76.8469 42.9745 76.5323 43.3725 76.1406 43.2937C75.766 43.2183 75.6237 42.7659 75.5635 42.3885C75.4263 41.5288 75.9184 40.246 76.4077 39.5258C76.779 38.9793 77.4074 38.6648 78.0356 38.4602C78.7716 38.2368 79.5279 38.0866 80.2934 38.0116C81.3267 37.8896 82.3971 37.8249 83.3874 38.1443C84.3777 38.4637 85.2795 39.245 85.4643 40.2689C85.5029 40.4822 85.5101 40.7007 85.5573 40.9122C85.6724 41.4283 86.0139 41.8621 86.2131 42.3519C86.3568 42.7116 86.4235 43.0974 86.4089 43.4845C86.3944 43.8716 86.2988 44.2513 86.1285 44.5992C86.0126 44.8323 85.8607 45.0615 85.7312 45.2943C85.5502 45.6197 84.9394 45.8742 84.6471 45.6436C84.631 45.631 84.6138 45.6197 84.5965 45.6087C84.4859 45.5384 84.4002 45.4347 84.3521 45.3122C84.2496 45.0512 84.3542 44.7588 84.3866 44.4804L84.4621 43.8302C84.505 43.6366 84.4856 43.4344 84.4067 43.2524C84.0273 42.5897 83.8623 43.6726 83.565 43.6351Z" fill="#2F2E41"/>
<path opacity="0.1" d="M91.3016 63.3592C91.4882 63.898 91.5185 64.4754 91.3852 65.0298L91.1281 66.0988C90.8281 67.3462 91.6077 68.5523 92.8907 68.5549C93.7496 68.5566 94.6478 67.9982 94.8996 67.177C95.1069 66.5007 95.2988 65.8249 95.4612 65.1755C96.4567 61.1936 94.7975 55.1101 93.9125 52.2343C93.6815 51.4837 93.3601 50.8762 93.0113 50.3883C91.927 48.8722 89.7842 48.8231 88.2711 49.9115C87.0503 50.7566 90.2937 60.4495 91.3016 63.3592Z" fill="black"/>
<path opacity="0.1" d="M90.5449 63.2221C90.648 63.7085 90.6441 64.2102 90.5277 64.6937L89.8367 67.5661C89.7235 68.0368 90.0637 68.4942 90.5475 68.5125C92.3134 68.5746 93.9026 67.4352 94.3716 65.7316C94.4438 65.4694 94.5122 65.2097 94.5761 64.9543C95.5717 60.9723 93.9124 54.8889 93.0275 52.013C92.6712 50.8551 92.1445 50.6745 91.6424 50.8718C91.4545 50.9457 89.709 51.2898 89.5431 51.4047C88.3257 52.2474 90.0018 60.6599 90.5449 63.2221Z" fill="black"/>
<path d="M72.697 101.467C73.5585 101.465 73.6093 100.309 72.7557 100.193C72.2731 100.127 72.0372 99.6091 72.2604 99.1764L72.6334 98.4531C72.8082 98.1144 72.6853 97.8199 72.3465 97.9946C71.8269 98.2625 71.1077 97.8605 71.2405 97.2912L71.8537 94.6618C72.1074 93.5737 71.3359 93.0235 70.8584 94.0336C70.201 95.424 69.7644 97.3753 69.552 98.4835C69.4846 98.8353 69.0423 98.9732 68.7921 98.7168L68.648 98.569C68.3442 98.2574 67.8339 98.5956 68.0024 98.9968C68.1195 99.2757 67.8919 99.5772 67.5915 99.5419C60.4975 98.7084 53.3647 98.2491 46.2227 98.1659C45.6407 98.1591 45.2672 97.5421 45.534 97.0248L45.6151 96.8676C45.7898 96.5289 45.6669 96.2344 45.3281 96.4091C44.8085 96.677 44.0894 96.2751 44.2221 95.7057L44.8353 93.0763C45.089 91.9882 44.3175 91.438 43.84 92.4481C43.1826 93.8386 42.746 95.7899 42.5336 96.898C42.4662 97.2498 42.023 97.3868 41.7729 97.1304C41.4395 96.7885 40.8773 97.1573 41.0622 97.5976C41.1807 97.8798 40.9766 98.1925 40.6706 98.1991C37.0127 98.2773 33.36 98.5088 29.7219 98.8929C28.8783 98.982 28.25 98.1772 28.6845 97.4487C29.0701 96.8023 29.5235 96.1893 29.9772 95.6411C30.4595 95.0584 29.5268 94.4833 28.9515 94.9744C28.4151 95.4323 27.6439 94.7294 27.67 94.0246C27.869 88.6707 28.8834 83.3734 30.6827 78.3165C30.6827 78.3165 25.2853 90.0608 25.974 97.9441C26.0206 98.7354 25.4496 99.4243 24.6731 99.5834C24.5668 99.6052 24.4624 99.6274 24.3599 99.65C22.6596 100.025 23.0221 101.534 24.7632 101.531L72.697 101.467Z" fill="#3F3D56"/>
<path d="M236.315 103.426C237.177 103.425 237.227 102.268 236.374 102.152C235.891 102.087 235.655 101.569 235.879 101.136L236.252 100.412C236.426 100.074 236.303 99.7793 235.965 99.954C235.445 100.222 234.726 99.8199 234.859 99.2506L235.472 96.6212C235.726 95.533 234.954 94.9828 234.476 95.9929C233.819 97.3834 233.383 99.3347 233.17 100.443C233.103 100.795 232.66 100.933 232.41 100.676L232.266 100.528C231.962 100.217 231.452 100.555 231.621 100.956C231.738 101.235 231.51 101.537 231.21 101.501C224.116 100.668 216.983 100.208 209.841 100.125C209.259 100.118 208.885 99.5014 209.152 98.9841L209.233 98.827C209.408 98.4882 209.285 98.1938 208.946 98.3685C208.427 98.6364 207.708 98.2344 207.84 97.6651L208.453 95.0357C208.707 93.9476 207.936 93.3974 207.458 94.4075C206.801 95.7979 206.364 97.7492 206.152 98.8574C206.084 99.2092 205.641 99.3462 205.391 99.0897C205.058 98.7479 204.495 99.1166 204.68 99.5569C204.799 99.8391 204.595 100.152 204.289 100.158C200.631 100.237 196.978 100.468 193.34 100.852C192.496 100.941 191.868 100.137 192.303 99.408C192.688 98.7616 193.142 98.1486 193.595 97.6005C194.078 97.0178 193.145 96.4427 192.57 96.9338C192.033 97.3917 191.262 96.6888 191.288 95.984C191.455 91.4998 192.193 87.0553 193.486 82.7586C193.951 81.2141 193.883 81.1839 193.288 82.6832C191.761 86.5335 189.096 94.2214 189.592 99.9035C189.639 100.695 189.068 101.384 188.291 101.543C188.185 101.565 188.081 101.587 187.978 101.609C186.278 101.985 186.64 103.493 188.381 103.491L236.315 103.426Z" fill="#3F3D56"/>
<path d="M253.755 136.51H0.244915C0.109652 136.51 0 136.62 0 136.755C0 136.89 0.10965 137 0.244913 137H253.755C253.89 137 254 136.89 254 136.755C254 136.62 253.89 136.51 253.755 136.51Z" fill="#2F2E41"/>
</svg>
